<?xml version="1.0" encoding="UTF-8"?>
<svg id="Layer_2" data-name="Layer 2" xmlns="http://www.w3.org/2000/svg" viewBox="0 0 200.51 36.27">
  <defs>
    <style>
      .cls-1 {
        fill: #fff;
      }
    </style>
  </defs>
  <g id="Layer_1-2" data-name="Layer 1">
    <path class="cls-1" d="M0,5.08h4.09v20.16H0V5.08Z"/>
    <path class="cls-1" d="M6.86,6.62c0-1.43,1.09-2.49,2.52-2.49s2.55,1.06,2.55,2.49-1.09,2.52-2.55,2.52-2.52-1.06-2.52-2.52ZM7.34,10.96h4.09v14.28h-4.09v-14.28Z"/>
    <path class="cls-1" d="M28.9,10.96l-5.8,14.28h-4.2l-5.82-14.28h4.68l3.3,9.1,3.28-9.1h4.56Z"/>
    <path class="cls-1" d="M43.99,19.44h-10.64c.5,1.6,1.88,2.58,3.67,2.58,1.62,0,2.91-.76,3.58-1.6l2.74,2.38c-1.51,1.71-3.81,2.77-6.44,2.77-4.54,0-7.95-3.25-7.95-7.56s3.28-7.39,7.62-7.39,7.5,3.19,7.5,7.53c0,.39-.03.92-.08,1.29ZM33.32,16.72h6.41c-.45-1.6-1.68-2.58-3.22-2.58s-2.77,1.01-3.19,2.58Z"/>
    <path class="cls-1" d="M45.22,22.71c0-1.57,1.2-2.77,2.8-2.77s2.83,1.2,2.83,2.77-1.2,2.8-2.83,2.8-2.8-1.2-2.8-2.8Z"/>
    <path class="cls-1" d="M58.85,5.08h4.09v20.16h-4.09V5.08Z"/>
    <path class="cls-1" d="M80.69,10.96v14.28h-4.09v-1.43c-1.09,1.12-2.58,1.76-4.31,1.76-3.92,0-6.89-3.22-6.89-7.48s2.97-7.48,6.89-7.48c1.74,0,3.22.64,4.31,1.76v-1.43h4.09ZM76.6,18.09c0-2.02-1.48-3.53-3.5-3.53s-3.47,1.51-3.47,3.53,1.48,3.53,3.47,3.53,3.5-1.51,3.5-3.53Z"/>
    <path class="cls-1" d="M83.69,19.52v-8.57h4.09v8.01c0,1.6,1.06,2.66,2.66,2.66s2.66-1.06,2.66-2.66v-8.01h4.09v8.57c0,3.64-2.66,6.05-6.75,6.05s-6.75-2.41-6.75-6.05Z"/>
    <path class="cls-1" d="M114.54,29.44l-4.2,1.15c-.11-.92-.9-1.54-2.04-1.54h-4.45c-2.77,0-4.59-1.6-4.59-3.98,0-1.51.76-2.97,1.96-3.7-1.18-1.12-1.88-2.69-1.88-4.45,0-3.61,2.88-6.3,6.75-6.3,1.09,0,2.1.22,3,.59.42-1.54,1.85-2.52,3.81-2.52h1.2v3.78h-1.01c-.67,0-1.2.34-1.34.87.7,1.01,1.12,2.21,1.12,3.58,0,3.61-2.91,6.3-6.78,6.3-.73,0-1.43-.08-2.1-.28-.42.28-.64.67-.64,1.09,0,.64.53,1.06,1.29,1.06h4.45c2.88,0,4.93,1.6,5.46,4.34ZM103.54,16.92c0,1.4,1.09,2.44,2.55,2.44s2.58-1.04,2.58-2.44-1.12-2.44-2.58-2.44-2.55,1.04-2.55,2.44Z"/>
    <path class="cls-1" d="M129.69,16.05v9.18h-4.09v-7.81c0-1.74-1.09-2.86-2.74-2.86-1.76,0-2.97,1.15-2.97,2.91v7.76h-4.09V5.08h4.09v7.39c1.12-1.2,2.58-1.85,4.34-1.85,3.28,0,5.46,2.16,5.46,5.43Z"/>
    <path class="cls-1" d="M131.93,22.71c0-1.57,1.2-2.77,2.8-2.77s2.83,1.2,2.83,2.77-1.2,2.8-2.83,2.8-2.8-1.2-2.8-2.8Z"/>
    <path class="cls-1" d="M150.25,16.68c-.32,1.46-.53,2.84-.53,3.94,0,1.28.32,2.06,1.1,2.06.67,0,1.95-.43,4.37-3.87.14-.21.35-.32.53-.32.25,0,.46.21.46.53,0,.18-.04.35-.18.6-2.66,4.79-4.93,5.93-7.1,5.93-2.02,0-3.34-1.49-3.34-4.54,0-5.11,5.08-21.01,9.87-21.01,1.74,0,2.48,1.24,2.48,3.55,0,3.37-2.7,8.91-7.67,13.13ZM150.89,14.34c3.44-3.8,4.83-7.42,4.83-8.62,0-.36-.11-.57-.39-.57-.85,0-3.05,4.61-4.44,9.19Z"/>
    <path class="cls-1" d="M166.08,18.85c-.85,3.51-3.58,6.71-7.35,6.71-3.09,0-4.76-2.17-4.76-4.86,0-3.69,3.12-6.81,5.15-7.56.5-1.28,1.77-2.09,3.12-2.09,2.2,0,4.12,2.06,4.12,5.54,0,.28-.04.57-.04.85,2.17-.46,3.58-1.74,4.01-2.13.25-.21.39-.28.57-.28s.39.14.39.43c0,.14-.07.39-.28.67-.71,1.03-2.66,2.27-4.93,2.73ZM163.56,18.99c-2.38-.28-4.08-1.74-4.54-3.48-.75.99-1.31,2.55-1.31,4.08,0,1.85.85,3.37,2.41,3.37,1.74,0,3.02-1.81,3.44-3.98ZM163.74,17.5v-.18c0-1.85-.67-2.91-1.49-2.91-.46,0-.89.35-.89,1.03,0,.99.89,1.81,2.38,2.06Z"/>
    <path class="cls-1" d="M179.57,18.1c-.6,3.8-3.48,7.45-7.49,7.45-3.09,0-4.76-2.17-4.76-4.86,0-3.69,3.12-6.81,5.15-7.56.5-1.28,1.77-2.09,3.12-2.09,2.17,0,4.08,2.02,4.12,5.47,1.92-.89,3.3-2.59,3.69-2.95.25-.21.39-.28.57-.28.32,0,.6.32.6.75,0,.18-.11.46-.21.6-.67.99-2.63,2.7-4.79,3.48ZM177.01,18.49c-2.56-.14-4.19-1.28-4.65-2.98-.75.99-1.31,2.55-1.31,4.08,0,1.85.85,3.37,2.41,3.37,1.85,0,3.19-2.09,3.55-4.47ZM177.08,17.04c-.07-1.67-.67-2.66-1.46-2.66-.46,0-.89.28-.89.96,0,.82.85,1.6,2.34,1.7Z"/>
    <path class="cls-1" d="M184.75,24.56c-.75,6.64-1.85,11.71-4.47,11.71-1.85,0-2.06-1.81-2.06-2.95,0-1.77,1.31-5.29,2.56-8.09.18-2.24.46-4.79.99-7.49.43-2.2,1.07-4.68,2.8-4.68.82,0,1.85.75,1.85,1.92,0,.46-.11,1.1-.28,1.85,1.28-2.41,3.26-5,5.82-5,2.41,0,3.41,2.24,3.41,4.4,0,4.08-3.51,9.26-8.06,9.26-.96,0-1.95-.25-2.56-.92ZM185.46,20.98c.32-.14.64-.25.92-.25.46,0,.78.14.78.46,0,.14-.18.39-.18.85,0,.92.5,1.28,1.03,1.28,2.02,0,3.73-3.16,3.73-5.79,0-1.49-.53-2.2-1.31-2.2-1.46,0-3.62,2.59-4.97,5.64Z"/>
    <path class="cls-1" d="M195.36,23.57c0-1.49,1.42-2.8,3.09-2.8,1.24,0,2.06.89,2.06,1.95,0,1.6-1.38,2.84-2.98,2.84-1.24,0-2.16-.89-2.16-1.99Z"/>
  </g>
</svg>